<?xml version='1.0' encoding='UTF-8' standalone='no'?>
<!-- Created with Fritzing (http://www.fritzing.org/) -->
<svg xmlns="http://www.w3.org/2000/svg" height="0.267717in" version="1.2" baseProfile="tiny" viewBox="0 0 10.7255 6.8"  width="0.422262in" y="0in" x="0in">
    <desc>
        <referenceFile>sparkfun-digitalic_so016_pcb.svg</referenceFile>
    </desc>
    <g gorn="0.0" id="copper1" >
        <rect height="1.2" gorn="0.0.0" id="connector0pad" stroke-linecap="round"  connectorname="1" width="0.6" stroke="none" stroke-width="0" y="5.6" x="0.6173" fill="#F7BD13"/>
        <rect height="1.2" gorn="0.0.1" id="connector1pad" stroke-linecap="round"  connectorname="2" width="0.6" stroke="none" stroke-width="0" y="5.6" x="1.8873" fill="#F7BD13"/>
        <rect height="1.2" gorn="0.0.2" id="connector2pad" stroke-linecap="round"  connectorname="3" width="0.6" stroke="none" stroke-width="0" y="5.6" x="3.1573" fill="#F7BD13"/>
        <rect height="1.2" gorn="0.0.3" id="connector3pad" stroke-linecap="round"  connectorname="4" width="0.6" stroke="none" stroke-width="0" y="5.6" x="4.4273" fill="#F7BD13"/>
        <rect height="1.2" gorn="0.0.4" id="connector4pad" stroke-linecap="round"  connectorname="5" width="0.6" stroke="none" stroke-width="0" y="5.6" x="5.6973" fill="#F7BD13"/>
        <rect height="1.2" gorn="0.0.5" id="connector5pad" stroke-linecap="round"  connectorname="6" width="0.6" stroke="none" stroke-width="0" y="5.6" x="6.9673" fill="#F7BD13"/>
        <rect height="1.2" gorn="0.0.6" id="connector6pad" stroke-linecap="round"  connectorname="7" width="0.6" stroke="none" stroke-width="0" y="5.6" x="8.2373" fill="#F7BD13"/>
        <rect height="1.2" gorn="0.0.7" id="connector7pad" stroke-linecap="round"  connectorname="8" width="0.6" stroke="none" stroke-width="0" y="5.6" x="9.5073" fill="#F7BD13"/>
        <rect height="1.2" gorn="0.0.8" id="connector8pad" stroke-linecap="round"  connectorname="9" width="0.6" stroke="none" stroke-width="0" y="0" x="9.5073" fill="#F7BD13"/>
        <rect height="1.2" gorn="0.0.9" id="connector9pad" stroke-linecap="round"  connectorname="10" width="0.6" stroke="none" stroke-width="0" y="0" x="8.2373" fill="#F7BD13"/>
        <rect height="1.2" gorn="0.0.10" id="connector10pad" stroke-linecap="round"  connectorname="11" width="0.6" stroke="none" stroke-width="0" y="0" x="6.9673" fill="#F7BD13"/>
        <rect height="1.2" gorn="0.0.11" id="connector11pad" stroke-linecap="round"  connectorname="12" width="0.6" stroke="none" stroke-width="0" y="0" x="5.6973" fill="#F7BD13"/>
        <rect height="1.2" gorn="0.0.12" id="connector12pad" stroke-linecap="round"  connectorname="13" width="0.6" stroke="none" stroke-width="0" y="0" x="4.4273" fill="#F7BD13"/>
        <rect height="1.2" gorn="0.0.13" id="connector13pad" stroke-linecap="round"  connectorname="14" width="0.6" stroke="none" stroke-width="0" y="0" x="3.1573" fill="#F7BD13"/>
        <rect height="1.2" gorn="0.0.14" id="connector14pad" stroke-linecap="round"  connectorname="15" width="0.6" stroke="none" stroke-width="0" y="0" x="1.8873" fill="#F7BD13"/>
        <rect height="1.2" gorn="0.0.15" id="connector15pad" stroke-linecap="round"  connectorname="16" width="0.6" stroke="none" stroke-width="0" y="0" x="0.6173" fill="#F7BD13"/>
        <g gorn="0.0.16" id="copper0" />
    </g>
    <g gorn="0.1" id="silkscreen" >
        <line class="other" y1="1.4537" stroke-linecap="round"  y2="1.4537" stroke="#f0f0f0" stroke-width="0.2032" x1="10.2391" x2="0.4855"/>
        <path class="other" d="M10.3391,5.3463 A0.334755,0.334755 0 0 0 10.6201,4.9653"  stroke-width="0.2032" stroke="#f0f0f0" fill="none"/>
        <path class="other" d="M0.1045,1.9347 A0.4338,0.4338 0 0 1 0.4855,1.4537"  stroke-width="0.2032" stroke="#f0f0f0" fill="none"/>
        <path class="other" d="M10.2391,1.4537 A0.3809,0.3809 0 0 1 10.6201,1.8347"  stroke-width="0.2032" stroke="#f0f0f0" fill="none"/>
        <path class="other" d="M0.1045,5.0653 A0.334579,0.334579 0 0 0 0.4855,5.3463"  stroke-width="0.2032" stroke="#f0f0f0" fill="none"/>
        <line class="other" y1="5.3463" stroke-linecap="round"  y2="5.3463" stroke="#f0f0f0" stroke-width="0.2032" x1="0.4855" x2="10.3391"/>
        <line class="other" y1="4.9653" stroke-linecap="round"  y2="1.8347" stroke="#f0f0f0" stroke-width="0.2032" x1="10.6201" x2="10.6201"/>
        <path class="other" d="M0.1553,2.7904 A0.635,0.635 0 1 1 0.1553,4.0604"  stroke-width="0.2032" stroke="#f0f0f0" fill="none"/>
        <line class="other" y1="1.9474" stroke-linecap="round"  y2="2.7904" stroke="#f0f0f0" stroke-width="0.2032" x1="0.1045" x2="0.1045"/>
        <line class="other" y1="5.0653" stroke-linecap="round"  y2="4.0604" stroke="#f0f0f0" stroke-width="0.2032" x1="0.1045" x2="0.1045"/>
    </g>
</svg>
