<?xml version='1.0' encoding='UTF-8' standalone='no'?>
<!-- Created with Fritzing (http://www.fritzing.org/) -->
<svg xmlns="http://www.w3.org/2000/svg" height="0.6in" version="1.2" viewBox="0 0 57.6 43.2" baseProfile="tiny"  width="0.8in" y="0in" x="0in">
    <desc>
        <referenceFile>SO16_breadboard.svg</referenceFile>
    </desc>
    <desc >Fritzing breadboard generated by brd2svg</desc>
    <g gorn="0.1" id="breadboard"  stroke-width="0">
        <g gorn="0.1.0" id="icon"  stroke-width="0">
            <path d="M0,0L0,19.44A2.16,2.16,0,0,1,0,23.76L0,43.2L57.6,43.2L57.6,0L0,0z"  stroke="none" stroke-width="0" fill="#1F7A34"/>
            <g  transform="matrix(1, 0, 0, 1, 14.184, 10.008)">
                <g  stroke-width="0">
                    <g  transform="matrix(0.5, 0, 0, 0.5, 7.308, 5.796)">
                        <g  stroke-width="0">
                            <rect height="5.76"  width="1.872" stroke="none" stroke-width="0" y="17.424" x="1.08" fill="#8c8c8c"/>
                            <rect height="5.76"  width="1.872" stroke="none" stroke-width="0" y="17.424" x="4.68" fill="#8c8c8c"/>
                            <rect height="5.76"  width="1.872" stroke="none" stroke-width="0" y="17.424" x="8.28" fill="#8c8c8c"/>
                            <rect height="5.76"  width="1.872" stroke="none" stroke-width="0" y="17.424" x="11.88" fill="#8c8c8c"/>
                            <rect height="5.76"  width="1.872" stroke="none" stroke-width="0" y="17.424" x="15.48" fill="#8c8c8c"/>
                            <rect height="5.76"  width="1.872" stroke="none" stroke-width="0" y="17.424" x="19.08" fill="#8c8c8c"/>
                            <rect height="5.76"  width="1.872" stroke="none" stroke-width="0" y="17.424" x="22.68" fill="#8c8c8c"/>
                            <rect height="5.76"  width="1.872" stroke="none" stroke-width="0" y="17.424" x="26.28" fill="#8c8c8c"/>
                            <rect height="5.76"  width="1.872" stroke="none" stroke-width="0" y="0" x="26.28" fill="#8c8c8c"/>
                            <rect height="5.76"  width="1.872" stroke="none" stroke-width="0" y="0" x="22.68" fill="#8c8c8c"/>
                            <rect height="5.76"  width="1.872" stroke="none" stroke-width="0" y="0" x="19.08" fill="#8c8c8c"/>
                            <rect height="5.76"  width="1.872" stroke="none" stroke-width="0" y="0" x="15.48" fill="#8c8c8c"/>
                            <rect height="5.76"  width="1.872" stroke="none" stroke-width="0" y="0" x="11.88" fill="#8c8c8c"/>
                            <rect height="5.76"  width="1.872" stroke="none" stroke-width="0" y="0" x="8.28" fill="#8c8c8c"/>
                            <rect height="5.76"  width="1.872" stroke="none" stroke-width="0" y="0" x="4.68" fill="#8c8c8c"/>
                            <rect height="5.76"  width="1.872" stroke="none" stroke-width="0" y="0" x="1.08" fill="#8c8c8c"/>
                            <rect height="11.088"  width="28.8" stroke="none" stroke-width="0" y="6.048" x="0.216" fill="#303030"/>
                            <polygon  points="0.216,6.048,29.016,6.048,28.296,6.768,0.936,6.768" stroke-width="0" fill="#1f1f1f"/>
                            <polygon  points="0.216,17.136,29.016,17.136,28.296,16.416,0.936,16.416" stroke-width="0" fill="#1f1f1f"/>
                            <polygon  points="0.216,6.048,0.216,17.136,0.936,16.416,0.936,6.768" stroke-width="0" fill="#000000"/>
                            <polygon  points="29.016,6.048,29.016,17.136,28.296,16.416,28.296,6.768" stroke-width="0" fill="#3d3d3d"/>
                            <circle cx="2.376" cy="14.976"  stroke="none" stroke-width="0" r="0.72" fill="#1f1f1f"/>
                        </g>
                    </g>
                </g>
            </g>
            <text font-size="4.68" text-anchor="start" gorn="0.1.0.2" id="label"  stroke="none" stroke-width="0" y="23.355" x="3.6" font-family="OCRA" fill="white">SO16</text>
            <g  transform="matrix(1, 0, 0, 1, 4.572, 37.8756)">
                <g  stroke-width="0">
                    <g  transform="rotate(-90)">
                        <g  stroke-width="0">
                            <text font-size="3.24" text-anchor="start"  stroke="none" stroke-width="0" y="0" x="0" font-family="OCRA" fill="white">1</text>
                        </g>
                    </g>
                </g>
            </g>
            <g  transform="matrix(1, 0, 0, 1, 4.572, 5.3244)">
                <g  stroke-width="0">
                    <g  transform="rotate(-90)">
                        <g  stroke-width="0">
                            <text font-size="3.24" text-anchor="end"  stroke="none" stroke-width="0" y="0" x="0" font-family="OCRA" fill="white">16</text>
                        </g>
                    </g>
                </g>
            </g>
            <g  transform="matrix(1, 0, 0, 1, 11.772, 37.8756)">
                <g  stroke-width="0">
                    <g  transform="rotate(-90)">
                        <g  stroke-width="0">
                            <text font-size="3.24" text-anchor="start"  stroke="none" stroke-width="0" y="0" x="0" font-family="OCRA" fill="white">2</text>
                        </g>
                    </g>
                </g>
            </g>
            <g  transform="matrix(1, 0, 0, 1, 11.772, 5.3244)">
                <g  stroke-width="0">
                    <g  transform="rotate(-90)">
                        <g  stroke-width="0">
                            <text font-size="3.24" text-anchor="end"  stroke="none" stroke-width="0" y="0" x="0" font-family="OCRA" fill="white">15</text>
                        </g>
                    </g>
                </g>
            </g>
            <g  transform="matrix(1, 0, 0, 1, 18.972, 37.8756)">
                <g  stroke-width="0">
                    <g  transform="rotate(-90)">
                        <g  stroke-width="0">
                            <text font-size="3.24" text-anchor="start"  stroke="none" stroke-width="0" y="0" x="0" font-family="OCRA" fill="white">3</text>
                        </g>
                    </g>
                </g>
            </g>
            <g  transform="matrix(1, 0, 0, 1, 18.972, 5.3244)">
                <g  stroke-width="0">
                    <g  transform="rotate(-90)">
                        <g  stroke-width="0">
                            <text font-size="3.24" text-anchor="end"  stroke="none" stroke-width="0" y="0" x="0" font-family="OCRA" fill="white">14</text>
                        </g>
                    </g>
                </g>
            </g>
            <g  transform="matrix(1, 0, 0, 1, 26.172, 37.8756)">
                <g  stroke-width="0">
                    <g  transform="rotate(-90)">
                        <g  stroke-width="0">
                            <text font-size="3.24" text-anchor="start"  stroke="none" stroke-width="0" y="0" x="0" font-family="OCRA" fill="white">4</text>
                        </g>
                    </g>
                </g>
            </g>
            <g  transform="matrix(1, 0, 0, 1, 26.172, 5.3244)">
                <g  stroke-width="0">
                    <g  transform="rotate(-90)">
                        <g  stroke-width="0">
                            <text font-size="3.24" text-anchor="end"  stroke="none" stroke-width="0" y="0" x="0" font-family="OCRA" fill="white">13</text>
                        </g>
                    </g>
                </g>
            </g>
            <g  transform="matrix(1, 0, 0, 1, 33.372, 37.8756)">
                <g  stroke-width="0">
                    <g  transform="rotate(-90)">
                        <g  stroke-width="0">
                            <text font-size="3.24" text-anchor="start"  stroke="none" stroke-width="0" y="0" x="0" font-family="OCRA" fill="white">5</text>
                        </g>
                    </g>
                </g>
            </g>
            <g  transform="matrix(1, 0, 0, 1, 33.372, 5.3244)">
                <g  stroke-width="0">
                    <g  transform="rotate(-90)">
                        <g  stroke-width="0">
                            <text font-size="3.24" text-anchor="end"  stroke="none" stroke-width="0" y="0" x="0" font-family="OCRA" fill="white">12</text>
                        </g>
                    </g>
                </g>
            </g>
            <g  transform="matrix(1, 0, 0, 1, 40.572, 37.8756)">
                <g  stroke-width="0">
                    <g  transform="rotate(-90)">
                        <g  stroke-width="0">
                            <text font-size="3.24" text-anchor="start"  stroke="none" stroke-width="0" y="0" x="0" font-family="OCRA" fill="white">6</text>
                        </g>
                    </g>
                </g>
            </g>
            <g  transform="matrix(1, 0, 0, 1, 40.572, 5.3244)">
                <g  stroke-width="0">
                    <g  transform="rotate(-90)">
                        <g  stroke-width="0">
                            <text font-size="3.24" text-anchor="end"  stroke="none" stroke-width="0" y="0" x="0" font-family="OCRA" fill="white">11</text>
                        </g>
                    </g>
                </g>
            </g>
            <g  transform="matrix(1, 0, 0, 1, 47.772, 37.8756)">
                <g  stroke-width="0">
                    <g  transform="rotate(-90)">
                        <g  stroke-width="0">
                            <text font-size="3.24" text-anchor="start"  stroke="none" stroke-width="0" y="0" x="0" font-family="OCRA" fill="white">7</text>
                        </g>
                    </g>
                </g>
            </g>
            <g  transform="matrix(1, 0, 0, 1, 47.772, 5.3244)">
                <g  stroke-width="0">
                    <g  transform="rotate(-90)">
                        <g  stroke-width="0">
                            <text font-size="3.24" text-anchor="end"  stroke="none" stroke-width="0" y="0" x="0" font-family="OCRA" fill="white">10</text>
                        </g>
                    </g>
                </g>
            </g>
            <g  transform="matrix(1, 0, 0, 1, 54.972, 37.8756)">
                <g  stroke-width="0">
                    <g  transform="rotate(-90)">
                        <g  stroke-width="0">
                            <text font-size="3.24" text-anchor="start"  stroke="none" stroke-width="0" y="0" x="0" font-family="OCRA" fill="white">8</text>
                        </g>
                    </g>
                </g>
            </g>
            <g  transform="matrix(1, 0, 0, 1, 54.972, 5.3244)">
                <g  stroke-width="0">
                    <g  transform="rotate(-90)">
                        <g  stroke-width="0">
                            <text font-size="3.24" text-anchor="end"  stroke="none" stroke-width="0" y="0" x="0" font-family="OCRA" fill="white">9</text>
                        </g>
                    </g>
                </g>
            </g>
        </g>
        <g  transform="matrix(1, 0, 0, 1, 2.45052, 38.4516)">
            <g gorn="0.1.1.0" id="connector0pin"  stroke-width="0">
                <rect height="2.2968"  width="2.29896" stroke-width="0" y="0" x="0" fill="#8D8C8C"/>
                <rect height="1.18189"  width="1.18398" stroke-width="0" y="0.556952" x="0.56099" fill="#8C8663"/>
                <polygon  points="0,2.2968,0.56099,1.73785,0.56099,0.501957,0,0" stroke-width="0" fill="#B8AF82"/>
                <polygon  points="1.74297,0.558951,0.56899,0.558951,0,0,2.29896,0" stroke-width="0" fill="#80795B"/>
                <polygon  points="1.74297,1.73785,1.74297,0.558951,2.29896,0,2.29896,2.2968" stroke-width="0" fill="#5E5B43"/>
                <polygon  points="0,2.2968,0.56699,1.73785,1.74297,1.73785,2.29896,2.2968" stroke-width="0" fill="#9A916C"/>
            </g>
        </g>
        <g  transform="matrix(1, 0, 0, 1, 2.45052, 2.4516)">
            <g gorn="0.1.2.0" id="connector15pin"  stroke-width="0">
                <rect height="2.2968"  width="2.29896" stroke-width="0" y="0" x="0" fill="#8D8C8C"/>
                <rect height="1.18189"  width="1.18398" stroke-width="0" y="0.556952" x="0.56099" fill="#8C8663"/>
                <polygon  points="0,2.2968,0.56099,1.73785,0.56099,0.501957,0,0" stroke-width="0" fill="#B8AF82"/>
                <polygon  points="1.74297,0.558951,0.56899,0.558951,0,0,2.29896,0" stroke-width="0" fill="#80795B"/>
                <polygon  points="1.74297,1.73785,1.74297,0.558951,2.29896,0,2.29896,2.2968" stroke-width="0" fill="#5E5B43"/>
                <polygon  points="0,2.2968,0.56699,1.73785,1.74297,1.73785,2.29896,2.2968" stroke-width="0" fill="#9A916C"/>
            </g>
        </g>
        <g  transform="matrix(1, 0, 0, 1, 9.65052, 38.4516)">
            <g gorn="0.1.3.0" id="connector1pin"  stroke-width="0">
                <rect height="2.2968"  width="2.29896" stroke-width="0" y="0" x="0" fill="#8D8C8C"/>
                <rect height="1.18189"  width="1.18398" stroke-width="0" y="0.556952" x="0.56099" fill="#8C8663"/>
                <polygon  points="0,2.2968,0.56099,1.73785,0.56099,0.501957,0,0" stroke-width="0" fill="#B8AF82"/>
                <polygon  points="1.74297,0.558951,0.56899,0.558951,0,0,2.29896,0" stroke-width="0" fill="#80795B"/>
                <polygon  points="1.74297,1.73785,1.74297,0.558951,2.29896,0,2.29896,2.2968" stroke-width="0" fill="#5E5B43"/>
                <polygon  points="0,2.2968,0.56699,1.73785,1.74297,1.73785,2.29896,2.2968" stroke-width="0" fill="#9A916C"/>
            </g>
        </g>
        <g  transform="matrix(1, 0, 0, 1, 9.65052, 2.4516)">
            <g gorn="0.1.4.0" id="connector14pin"  stroke-width="0">
                <rect height="2.2968"  width="2.29896" stroke-width="0" y="0" x="0" fill="#8D8C8C"/>
                <rect height="1.18189"  width="1.18398" stroke-width="0" y="0.556952" x="0.56099" fill="#8C8663"/>
                <polygon  points="0,2.2968,0.56099,1.73785,0.56099,0.501957,0,0" stroke-width="0" fill="#B8AF82"/>
                <polygon  points="1.74297,0.558951,0.56899,0.558951,0,0,2.29896,0" stroke-width="0" fill="#80795B"/>
                <polygon  points="1.74297,1.73785,1.74297,0.558951,2.29896,0,2.29896,2.2968" stroke-width="0" fill="#5E5B43"/>
                <polygon  points="0,2.2968,0.56699,1.73785,1.74297,1.73785,2.29896,2.2968" stroke-width="0" fill="#9A916C"/>
            </g>
        </g>
        <g  transform="matrix(1, 0, 0, 1, 16.8505, 38.4516)">
            <g gorn="0.1.5.0" id="connector2pin"  stroke-width="0">
                <rect height="2.2968"  width="2.29896" stroke-width="0" y="0" x="0" fill="#8D8C8C"/>
                <rect height="1.18189"  width="1.18398" stroke-width="0" y="0.556952" x="0.56099" fill="#8C8663"/>
                <polygon  points="0,2.2968,0.56099,1.73785,0.56099,0.501957,0,0" stroke-width="0" fill="#B8AF82"/>
                <polygon  points="1.74297,0.558951,0.56899,0.558951,0,0,2.29896,0" stroke-width="0" fill="#80795B"/>
                <polygon  points="1.74297,1.73785,1.74297,0.558951,2.29896,0,2.29896,2.2968" stroke-width="0" fill="#5E5B43"/>
                <polygon  points="0,2.2968,0.56699,1.73785,1.74297,1.73785,2.29896,2.2968" stroke-width="0" fill="#9A916C"/>
            </g>
        </g>
        <g  transform="matrix(1, 0, 0, 1, 16.8505, 2.4516)">
            <g gorn="0.1.6.0" id="connector13pin"  stroke-width="0">
                <rect height="2.2968"  width="2.29896" stroke-width="0" y="0" x="0" fill="#8D8C8C"/>
                <rect height="1.18189"  width="1.18398" stroke-width="0" y="0.556952" x="0.56099" fill="#8C8663"/>
                <polygon  points="0,2.2968,0.56099,1.73785,0.56099,0.501957,0,0" stroke-width="0" fill="#B8AF82"/>
                <polygon  points="1.74297,0.558951,0.56899,0.558951,0,0,2.29896,0" stroke-width="0" fill="#80795B"/>
                <polygon  points="1.74297,1.73785,1.74297,0.558951,2.29896,0,2.29896,2.2968" stroke-width="0" fill="#5E5B43"/>
                <polygon  points="0,2.2968,0.56699,1.73785,1.74297,1.73785,2.29896,2.2968" stroke-width="0" fill="#9A916C"/>
            </g>
        </g>
        <g  transform="matrix(1, 0, 0, 1, 24.0505, 38.4516)">
            <g gorn="0.1.7.0" id="connector3pin"  stroke-width="0">
                <rect height="2.2968"  width="2.29896" stroke-width="0" y="0" x="0" fill="#8D8C8C"/>
                <rect height="1.18189"  width="1.18398" stroke-width="0" y="0.556952" x="0.56099" fill="#8C8663"/>
                <polygon  points="0,2.2968,0.56099,1.73785,0.56099,0.501957,0,0" stroke-width="0" fill="#B8AF82"/>
                <polygon  points="1.74297,0.558951,0.56899,0.558951,0,0,2.29896,0" stroke-width="0" fill="#80795B"/>
                <polygon  points="1.74297,1.73785,1.74297,0.558951,2.29896,0,2.29896,2.2968" stroke-width="0" fill="#5E5B43"/>
                <polygon  points="0,2.2968,0.56699,1.73785,1.74297,1.73785,2.29896,2.2968" stroke-width="0" fill="#9A916C"/>
            </g>
        </g>
        <g  transform="matrix(1, 0, 0, 1, 24.0505, 2.4516)">
            <g gorn="0.1.8.0" id="connector12pin"  stroke-width="0">
                <rect height="2.2968"  width="2.29896" stroke-width="0" y="0" x="0" fill="#8D8C8C"/>
                <rect height="1.18189"  width="1.18398" stroke-width="0" y="0.556952" x="0.56099" fill="#8C8663"/>
                <polygon  points="0,2.2968,0.56099,1.73785,0.56099,0.501957,0,0" stroke-width="0" fill="#B8AF82"/>
                <polygon  points="1.74297,0.558951,0.56899,0.558951,0,0,2.29896,0" stroke-width="0" fill="#80795B"/>
                <polygon  points="1.74297,1.73785,1.74297,0.558951,2.29896,0,2.29896,2.2968" stroke-width="0" fill="#5E5B43"/>
                <polygon  points="0,2.2968,0.56699,1.73785,1.74297,1.73785,2.29896,2.2968" stroke-width="0" fill="#9A916C"/>
            </g>
        </g>
        <g  transform="matrix(1, 0, 0, 1, 31.2505, 38.4516)">
            <g gorn="0.1.9.0" id="connector4pin"  stroke-width="0">
                <rect height="2.2968"  width="2.29896" stroke-width="0" y="0" x="0" fill="#8D8C8C"/>
                <rect height="1.18189"  width="1.18398" stroke-width="0" y="0.556952" x="0.56099" fill="#8C8663"/>
                <polygon  points="0,2.2968,0.56099,1.73785,0.56099,0.501957,0,0" stroke-width="0" fill="#B8AF82"/>
                <polygon  points="1.74297,0.558951,0.56899,0.558951,0,0,2.29896,0" stroke-width="0" fill="#80795B"/>
                <polygon  points="1.74297,1.73785,1.74297,0.558951,2.29896,0,2.29896,2.2968" stroke-width="0" fill="#5E5B43"/>
                <polygon  points="0,2.2968,0.56699,1.73785,1.74297,1.73785,2.29896,2.2968" stroke-width="0" fill="#9A916C"/>
            </g>
        </g>
        <g  transform="matrix(1, 0, 0, 1, 31.2505, 2.4516)">
            <g gorn="0.1.10.0" id="connector11pin"  stroke-width="0">
                <rect height="2.2968"  width="2.29896" stroke-width="0" y="0" x="0" fill="#8D8C8C"/>
                <rect height="1.18189"  width="1.18398" stroke-width="0" y="0.556952" x="0.56099" fill="#8C8663"/>
                <polygon  points="0,2.2968,0.56099,1.73785,0.56099,0.501957,0,0" stroke-width="0" fill="#B8AF82"/>
                <polygon  points="1.74297,0.558951,0.56899,0.558951,0,0,2.29896,0" stroke-width="0" fill="#80795B"/>
                <polygon  points="1.74297,1.73785,1.74297,0.558951,2.29896,0,2.29896,2.2968" stroke-width="0" fill="#5E5B43"/>
                <polygon  points="0,2.2968,0.56699,1.73785,1.74297,1.73785,2.29896,2.2968" stroke-width="0" fill="#9A916C"/>
            </g>
        </g>
        <g  transform="matrix(1, 0, 0, 1, 38.4505, 38.4516)">
            <g gorn="0.1.11.0" id="connector5pin"  stroke-width="0">
                <rect height="2.2968"  width="2.29896" stroke-width="0" y="0" x="0" fill="#8D8C8C"/>
                <rect height="1.18189"  width="1.18398" stroke-width="0" y="0.556952" x="0.56099" fill="#8C8663"/>
                <polygon  points="0,2.2968,0.56099,1.73785,0.56099,0.501957,0,0" stroke-width="0" fill="#B8AF82"/>
                <polygon  points="1.74297,0.558951,0.56899,0.558951,0,0,2.29896,0" stroke-width="0" fill="#80795B"/>
                <polygon  points="1.74297,1.73785,1.74297,0.558951,2.29896,0,2.29896,2.2968" stroke-width="0" fill="#5E5B43"/>
                <polygon  points="0,2.2968,0.56699,1.73785,1.74297,1.73785,2.29896,2.2968" stroke-width="0" fill="#9A916C"/>
            </g>
        </g>
        <g  transform="matrix(1, 0, 0, 1, 38.4505, 2.4516)">
            <g gorn="0.1.12.0" id="connector10pin"  stroke-width="0">
                <rect height="2.2968"  width="2.29896" stroke-width="0" y="0" x="0" fill="#8D8C8C"/>
                <rect height="1.18189"  width="1.18398" stroke-width="0" y="0.556952" x="0.56099" fill="#8C8663"/>
                <polygon  points="0,2.2968,0.56099,1.73785,0.56099,0.501957,0,0" stroke-width="0" fill="#B8AF82"/>
                <polygon  points="1.74297,0.558951,0.56899,0.558951,0,0,2.29896,0" stroke-width="0" fill="#80795B"/>
                <polygon  points="1.74297,1.73785,1.74297,0.558951,2.29896,0,2.29896,2.2968" stroke-width="0" fill="#5E5B43"/>
                <polygon  points="0,2.2968,0.56699,1.73785,1.74297,1.73785,2.29896,2.2968" stroke-width="0" fill="#9A916C"/>
            </g>
        </g>
        <g  transform="matrix(1, 0, 0, 1, 45.6505, 38.4516)">
            <g gorn="0.1.13.0" id="connector6pin"  stroke-width="0">
                <rect height="2.2968"  width="2.29896" stroke-width="0" y="0" x="0" fill="#8D8C8C"/>
                <rect height="1.18189"  width="1.18398" stroke-width="0" y="0.556952" x="0.56099" fill="#8C8663"/>
                <polygon  points="0,2.2968,0.56099,1.73785,0.56099,0.501957,0,0" stroke-width="0" fill="#B8AF82"/>
                <polygon  points="1.74297,0.558951,0.56899,0.558951,0,0,2.29896,0" stroke-width="0" fill="#80795B"/>
                <polygon  points="1.74297,1.73785,1.74297,0.558951,2.29896,0,2.29896,2.2968" stroke-width="0" fill="#5E5B43"/>
                <polygon  points="0,2.2968,0.56699,1.73785,1.74297,1.73785,2.29896,2.2968" stroke-width="0" fill="#9A916C"/>
            </g>
        </g>
        <g  transform="matrix(1, 0, 0, 1, 45.6505, 2.4516)">
            <g gorn="0.1.14.0" id="connector9pin"  stroke-width="0">
                <rect height="2.2968"  width="2.29896" stroke-width="0" y="0" x="0" fill="#8D8C8C"/>
                <rect height="1.18189"  width="1.18398" stroke-width="0" y="0.556952" x="0.56099" fill="#8C8663"/>
                <polygon  points="0,2.2968,0.56099,1.73785,0.56099,0.501957,0,0" stroke-width="0" fill="#B8AF82"/>
                <polygon  points="1.74297,0.558951,0.56899,0.558951,0,0,2.29896,0" stroke-width="0" fill="#80795B"/>
                <polygon  points="1.74297,1.73785,1.74297,0.558951,2.29896,0,2.29896,2.2968" stroke-width="0" fill="#5E5B43"/>
                <polygon  points="0,2.2968,0.56699,1.73785,1.74297,1.73785,2.29896,2.2968" stroke-width="0" fill="#9A916C"/>
            </g>
        </g>
        <g  transform="matrix(1, 0, 0, 1, 52.8505, 38.4516)">
            <g gorn="0.1.15.0" id="connector7pin"  stroke-width="0">
                <rect height="2.2968"  width="2.29896" stroke-width="0" y="0" x="0" fill="#8D8C8C"/>
                <rect height="1.18189"  width="1.18398" stroke-width="0" y="0.556952" x="0.56099" fill="#8C8663"/>
                <polygon  points="0,2.2968,0.56099,1.73785,0.56099,0.501957,0,0" stroke-width="0" fill="#B8AF82"/>
                <polygon  points="1.74297,0.558951,0.56899,0.558951,0,0,2.29896,0" stroke-width="0" fill="#80795B"/>
                <polygon  points="1.74297,1.73785,1.74297,0.558951,2.29896,0,2.29896,2.2968" stroke-width="0" fill="#5E5B43"/>
                <polygon  points="0,2.2968,0.56699,1.73785,1.74297,1.73785,2.29896,2.2968" stroke-width="0" fill="#9A916C"/>
            </g>
        </g>
        <g  transform="matrix(1, 0, 0, 1, 52.8505, 2.4516)">
            <g gorn="0.1.16.0" id="connector8pin"  stroke-width="0">
                <rect height="2.2968"  width="2.29896" stroke-width="0" y="0" x="0" fill="#8D8C8C"/>
                <rect height="1.18189"  width="1.18398" stroke-width="0" y="0.556952" x="0.56099" fill="#8C8663"/>
                <polygon  points="0,2.2968,0.56099,1.73785,0.56099,0.501957,0,0" stroke-width="0" fill="#B8AF82"/>
                <polygon  points="1.74297,0.558951,0.56899,0.558951,0,0,2.29896,0" stroke-width="0" fill="#80795B"/>
                <polygon  points="1.74297,1.73785,1.74297,0.558951,2.29896,0,2.29896,2.2968" stroke-width="0" fill="#5E5B43"/>
                <polygon  points="0,2.2968,0.56699,1.73785,1.74297,1.73785,2.29896,2.2968" stroke-width="0" fill="#9A916C"/>
            </g>
        </g>
    </g>
</svg>
